Coordinates
version=1
nRows=6
nColumns=63
inDegrees=yes

Units are S.I. units (second, meters, Newtons, ...)
If the header above contains a line with 'inDegrees', this indicates whether rotational values are in degrees (yes) or radians (no).

endheader
time	pelvis_tilt	pelvis_list	pelvis_rotation	pelvis_tx	pelvis_ty	pelvis_tz	hip_flexion_r	hip_adduction_r	hip_rotation_r	knee_angle_r	knee_angle_r_beta	ankle_angle_r	subtalar_angle_r	mtp_angle_r	hip_flexion_l	hip_adduction_l	hip_rotation_l	knee_angle_l	knee_angle_l_beta	ankle_angle_l	subtalar_angle_l	mtp_angle_l	L5_S1_Flex_Ext	L5_S1_Lat_Bending	L5_S1_axial_rotation	L4_L5_Flex_Ext	L4_L5_Lat_Bending	L4_L5_axial_rotation	L3_L4_Flex_Ext	L3_L4_Lat_Bending	L3_L4_axial_rotation	L2_L3_Flex_Ext	L2_L3_Lat_Bending	L2_L3_axial_rotation	L1_L2_Flex_Ext	L1_L2_Lat_Bending	L1_L2_axial_rotation	L1_T12_Flex_Ext	L1_T12_Lat_Bending	L1_T12_axial_rotation	Abs_r3	Abs_r2	Abs_r1	Abs_t1	Abs_t2	neck_flexion	neck_bending	neck_rotation	arm_flex_r	arm_add_r	arm_rot_r	elbow_flex_r	pro_sup_r	wrist_flex_r	wrist_dev_r	arm_flex_l	arm_add_l	arm_rot_l	elbow_flex_l	pro_sup_l	wrist_flex_l	wrist_dev_l
      3.90000000	      4.80692337	     -0.63475814	     -9.60026848	      1.03418334	      0.98263382	      0.41681482	    -11.17864494	      2.17026791	     -8.05664059	      4.71558607	      0.08230250	     12.55090350	     11.64793417	      0.00000000	     25.29279364	     -7.87924326	    -13.25475227	     59.51653122	      1.03875943	     12.25371256	    -14.35460418	      0.00000000	     -0.00363262	      0.10807706	      1.22464735	     -0.00674613	      0.14374249	      1.30118781	     -0.00596803	      0.26277856	      1.30118781	     -0.00415172	      0.26277856	      1.07156643	     -0.00337325	      0.22039074	      0.99502597	     -0.00207568	      0.16741137	      0.91848551	     -0.02594741	      1.22258932	      6.81112117	      0.00000000	      0.00000000	      0.00000000	      0.00000000	      0.00000000	     26.88220758	     -9.02525338	    154.45031228	      0.24621218	      3.18443608	      0.00000000	      5.00000014	    -13.09504979	    -14.64479187	     39.81496349	     19.31770015	     68.10472771	      0.00000000	      5.00000014
      3.93333333	      4.64464019	     -0.94461359	    -11.90633861	      1.07071463	      0.98019162	      0.41913543	    -13.71098180	      1.70750895	     -3.76625054	      3.79447053	      0.06622600	     13.10921551	      8.19303399	      0.00000000	     26.24392241	     -8.32681345	    -15.05962417	     47.48703257	      0.82880507	      9.79152529	    -14.71700710	      0.00000000	     -0.00524694	      0.12370975	      1.90649947	     -0.00974409	      0.16453397	      2.02565569	     -0.00862019	      0.30078789	      2.02565569	     -0.00599672	      0.30078789	      1.66818704	     -0.00487230	      0.25226892	      1.54903082	     -0.00299810	      0.19162640	      1.42987460	     -0.03747834	      1.39942943	     10.60337810	      0.00000000	      0.00000000	      0.00000000	      0.00000000	      0.00000000	     29.81135937	     -9.69065292	    160.18695154	      0.20808799	      2.43021147	      0.00000000	      5.00000014	    -12.98773789	    -14.55827430	     41.79500469	     17.20321441	     68.75446782	      0.00000000	      5.00000014
      3.96666667	      4.55002900	     -1.23763961	    -13.78716707	      1.11012332	      0.97497861	      0.42163725	    -16.30720997	      0.95912629	     -2.19524777	      3.37379915	      0.05888390	     13.99806971	      8.09413425	      0.00000000	     25.27810404	     -8.59867200	    -17.11948423	     34.08600585	      0.59491303	      4.40130908	    -14.08455330	      0.00000000	     -0.00454318	      0.12923540	      2.40148879	     -0.00843714	      0.17188309	      2.55158184	     -0.00746399	      0.31422296	      2.55158184	     -0.00519240	      0.31422296	      2.10130269	     -0.00421879	      0.26353684	      1.95120964	     -0.00259597	      0.20018564	      1.80111659	     -0.03245146	      1.46193675	     13.35636020	      0.00000000	      0.00000000	      0.00000000	      0.00000000	      0.00000000	     31.83369738	    -10.09579613	    161.04144922	      0.19641883	      2.33435936	      0.00000000	      5.00000014	    -13.21478711	    -14.45655528	     41.28216872	     15.23651410	     68.40597582	      0.00000000	      5.00000014
      4.00000000	      4.43099975	     -1.90313106	    -15.48184479	      1.15261899	      0.96697847	      0.42398270	    -18.92871552	      0.45603427	      1.19525200	      3.54707120	      0.06190807	     14.40583863	      5.37461815	      0.00000000	     23.40220909	     -9.37402224	    -20.61638731	     22.07474186	      0.38527693	     -1.09233503	    -10.23786211	      0.00000000	     -0.00175567	      0.17493596	      2.70739987	     -0.00326045	      0.23266482	      2.87661236	     -0.00288439	      0.42533928	      2.87661236	     -0.00200655	      0.42533928	      2.36897489	     -0.00163031	      0.35672940	      2.19976239	     -0.00100319	      0.27097580	      2.03054990	     -0.01254057	      1.97891052	     15.05774586	      0.00000000	      0.00000000	      0.00000000	      0.00000000	      0.00000000	     33.58922114	    -10.04061391	    164.08353196	      0.17989228	      2.15913375	      0.00000000	      5.00000014	    -17.35858075	    -10.56026886	     -0.08876582	     17.50105725	     63.55843192	      0.00000000	      5.00000014
      4.03333333	      4.43989148	     -2.65983285	    -16.51827875	      1.19812852	      0.95766054	      0.42514171	    -21.43576603	     -0.09752094	      1.69621173	      4.79620310	      0.08370954	     15.08647364	      5.89686899	      0.00000000	     21.92416313	     -9.83840822	    -22.83398254	     13.95670234	      0.24359041	     -5.90435597	     -7.31589894	      0.00000000	      0.00417727	      0.24268357	      2.83907458	      0.00775762	      0.32276915	      3.01651674	      0.00686285	      0.59006083	      3.01651674	      0.00477421	      0.59006083	      2.48419026	      0.00387902	      0.49488033	      2.30674810	      0.00238689	      0.37591685	      2.12930594	      0.02983786	      2.74528507	     15.79008111	      0.00000000	      0.00000000	      0.00000000	      0.00000000	      0.00000000	     34.77992797	     -9.76098243	    164.39371888	      0.16966126	      2.07536426	      0.00000000	      5.00000014	    -19.03580043	    -10.67264786	     -1.34572701	     19.53753572	     62.86680431	      0.00000000	      5.00000014
      4.06666667	      4.63036362	     -3.49630630	    -17.18720255	      1.24593340	      0.94910850	      0.42486517	    -23.42849556	     -0.78867769	      0.61258256	      7.72051316	      0.13474837	     15.39379018	      7.92255629	      0.00000000	     20.82077617	    -10.83246067	    -28.11197851	     10.63279241	      0.18557724	     -6.72032439	      0.39474894	      0.00000000	      0.00497388	      0.31127294	      2.88902642	      0.00923699	      0.41399300	      3.06959057	      0.00817159	      0.75682901	      3.06959057	      0.00568465	      0.75682901	      2.52789812	      0.00461875	      0.63474777	      2.34733396	      0.00284208	      0.48216178	      2.16676981	      0.03552794	      3.52118170	     16.06789823	      0.00000000	      0.00000000	      0.00000000	      0.00000000	      0.00000000	     35.27501383	     -9.43246200	    164.19986229	      0.15975217	      1.97208695	      0.00000000	      5.00000014	    -21.33011771	     -7.57415720	    -19.79955338	     24.09560391	     56.26191418	      0.00000000	      5.00000014
